<svg version="1.1" id="Layer_1" xmlns="http://www.w3.org/2000/svg" xmlns:xlink="http://www.w3.org/1999/xlink" x="0px" y="0px"
	 width="100%" viewBox="0 0 2000 2000" enable-background="new 0 0 2000 2000" xml:space="preserve">
<path fill="#FFFFFF" opacity="1.000000" stroke="none" 
	d="
M1270.000000,2001.000000 
	C846.666687,2001.000000 423.833344,2001.000000 1.000000,2001.000000 
	C1.000000,1334.333374 1.000000,667.666687 1.000000,1.000000 
	C667.666687,1.000000 1334.333374,1.000000 2001.000000,1.000000 
	C2001.000000,667.666687 2001.000000,1334.333374 2001.000000,2001.000000 
	C1757.500000,2001.000000 1514.000000,2001.000000 1270.000000,2001.000000 
M668.499939,1152.834595 
	C976.591187,1152.834595 1284.682373,1152.834595 1592.763916,1152.834595 
	C1592.763916,1127.909668 1592.763916,1103.529053 1592.763916,1078.715820 
	C1410.022095,1078.715820 1227.630737,1078.715820 1045.409912,1078.715820 
	C1045.409912,1052.190430 1045.409912,1026.102051 1045.409912,999.554565 
	C1197.799072,999.554565 1349.863770,999.554565 1501.762939,999.554565 
	C1501.762939,976.692810 1501.762939,954.295898 1501.762939,931.606079 
	C1349.433716,931.606079 1197.492310,931.606079 1045.389160,931.606079 
	C1045.389160,906.920166 1045.389160,882.534363 1045.389160,857.623779 
	C1173.247681,857.623779 1300.798706,857.623779 1428.752441,857.623779 
	C1428.752441,808.855408 1428.752441,760.611145 1428.752441,711.812683 
	C1483.364746,711.812683 1537.575073,711.812683 1591.615967,711.812683 
	C1591.615967,686.506348 1591.615967,661.757874 1591.615967,636.618774 
	C1537.181763,636.618774 1483.081421,636.618774 1428.649414,636.618774 
	C1428.649414,589.276672 1428.649414,542.328186 1428.649414,494.719696 
	C1300.634399,494.719696 1172.952271,494.719696 1044.821411,494.719696 
	C1044.821411,463.152893 1044.821411,432.246216 1044.821411,401.463379 
	C1012.124268,401.463379 979.879272,401.463379 947.141846,401.463379 
	C947.141846,432.669250 947.141846,463.573456 947.141846,494.900330 
	C815.244995,494.900330 683.842468,494.900330 552.364014,494.900330 
	C552.364014,517.387146 552.364014,539.443420 552.364014,561.906006 
	C684.086243,561.906006 815.495422,561.906006 946.963379,561.906006 
	C946.963379,587.039429 946.963379,611.763000 946.963379,636.879822 
	C768.387573,636.879822 590.133972,636.879822 411.623749,636.879822 
	C411.623749,662.028809 411.623749,686.782715 411.623749,712.011597 
	C590.234009,712.011597 768.628479,712.011597 946.864136,712.011597 
	C946.864136,738.530151 946.864136,764.572205 946.864136,790.994629 
	C810.212158,790.994629 673.961792,790.994629 537.668945,790.994629 
	C537.668945,813.436401 537.668945,835.490356 537.668945,858.056641 
	C674.397217,858.056641 810.782471,858.056641 947.016235,858.056641 
	C947.016235,882.849731 947.016235,907.126770 947.016235,931.910339 
	C797.864258,931.910339 648.985596,931.910339 500.222473,931.910339 
	C500.222473,954.806030 500.222473,977.190369 500.222473,999.917480 
	C649.351501,999.917480 798.107300,999.917480 947.068115,999.917480 
	C947.068115,1026.347290 947.068115,1052.429321 947.068115,1078.984497 
	C767.699036,1078.984497 588.473022,1078.984497 409.233337,1078.984497 
	C409.233337,1103.833374 409.233337,1128.207642 409.233337,1152.834595 
	C495.554108,1152.834595 581.526978,1152.834595 668.499939,1152.834595 
M580.176697,1493.500000 
	C580.176697,1538.920410 580.176697,1584.340698 580.176697,1629.717285 
	C612.714111,1629.717285 644.628967,1629.717285 676.989624,1629.717285 
	C676.989624,1614.840088 676.989624,1600.250732 676.989624,1585.732910 
	C896.844604,1585.732910 1116.251709,1585.732910 1336.064697,1585.732910 
	C1336.064697,1599.545410 1336.064697,1613.120483 1336.064697,1626.789551 
	C1369.219238,1626.789551 1401.967041,1626.789551 1434.779785,1626.789551 
	C1434.779785,1489.712769 1434.779785,1352.848633 1434.779785,1216.211670 
	C1149.774414,1216.211670 865.086914,1216.211670 580.176697,1216.211670 
	C580.176697,1308.561035 580.176697,1400.530518 580.176697,1493.500000 
z"/>
<path fill="#010101" opacity="1.000000" stroke="none" 
	d="
M667.999878,1152.834595 
	C581.526978,1152.834595 495.554108,1152.834595 409.233337,1152.834595 
	C409.233337,1128.207642 409.233337,1103.833374 409.233337,1078.984497 
	C588.473022,1078.984497 767.699036,1078.984497 947.068115,1078.984497 
	C947.068115,1052.429321 947.068115,1026.347290 947.068115,999.917480 
	C798.107300,999.917480 649.351501,999.917480 500.222473,999.917480 
	C500.222473,977.190369 500.222473,954.806030 500.222473,931.910339 
	C648.985596,931.910339 797.864258,931.910339 947.016235,931.910339 
	C947.016235,907.126770 947.016235,882.849731 947.016235,858.056641 
	C810.782471,858.056641 674.397217,858.056641 537.668945,858.056641 
	C537.668945,835.490356 537.668945,813.436401 537.668945,790.994629 
	C673.961792,790.994629 810.212158,790.994629 946.864136,790.994629 
	C946.864136,764.572205 946.864136,738.530151 946.864136,712.011597 
	C768.628479,712.011597 590.234009,712.011597 411.623749,712.011597 
	C411.623749,686.782715 411.623749,662.028809 411.623749,636.879822 
	C590.133972,636.879822 768.387573,636.879822 946.963379,636.879822 
	C946.963379,611.763000 946.963379,587.039429 946.963379,561.906006 
	C815.495422,561.906006 684.086243,561.906006 552.364014,561.906006 
	C552.364014,539.443420 552.364014,517.387146 552.364014,494.900330 
	C683.842468,494.900330 815.244995,494.900330 947.141846,494.900330 
	C947.141846,463.573456 947.141846,432.669250 947.141846,401.463379 
	C979.879272,401.463379 1012.124268,401.463379 1044.821411,401.463379 
	C1044.821411,432.246216 1044.821411,463.152893 1044.821411,494.719696 
	C1172.952271,494.719696 1300.634399,494.719696 1428.649414,494.719696 
	C1428.649414,542.328186 1428.649414,589.276672 1428.649414,636.618774 
	C1483.081421,636.618774 1537.181763,636.618774 1591.615967,636.618774 
	C1591.615967,661.757874 1591.615967,686.506348 1591.615967,711.812683 
	C1537.575073,711.812683 1483.364746,711.812683 1428.752441,711.812683 
	C1428.752441,760.611145 1428.752441,808.855408 1428.752441,857.623779 
	C1300.798706,857.623779 1173.247681,857.623779 1045.389160,857.623779 
	C1045.389160,882.534363 1045.389160,906.920166 1045.389160,931.606079 
	C1197.492310,931.606079 1349.433716,931.606079 1501.762939,931.606079 
	C1501.762939,954.295898 1501.762939,976.692810 1501.762939,999.554565 
	C1349.863770,999.554565 1197.799072,999.554565 1045.409912,999.554565 
	C1045.409912,1026.102051 1045.409912,1052.190430 1045.409912,1078.715820 
	C1227.630737,1078.715820 1410.022095,1078.715820 1592.763916,1078.715820 
	C1592.763916,1103.529053 1592.763916,1127.909668 1592.763916,1152.834595 
	C1284.682373,1152.834595 976.591187,1152.834595 667.999878,1152.834595 
M1103.500000,790.840942 
	C1179.217041,790.840942 1254.934204,790.840942 1330.601318,790.840942 
	C1330.601318,764.130859 1330.601318,738.216309 1330.601318,712.336304 
	C1235.310181,712.336304 1140.296875,712.336304 1045.371948,712.336304 
	C1045.371948,738.595032 1045.371948,764.508179 1045.371948,790.840942 
	C1064.596313,790.840942 1083.548096,790.840942 1103.500000,790.840942 
M1225.500000,561.835510 
	C1165.432251,561.835510 1105.364380,561.835510 1045.337646,561.835510 
	C1045.337646,587.203979 1045.337646,611.797729 1045.337646,636.462158 
	C1140.617065,636.462158 1235.637085,636.462158 1330.623413,636.462158 
	C1330.623413,611.476257 1330.623413,586.871277 1330.623413,561.835510 
	C1295.743164,561.835510 1261.121582,561.835510 1225.500000,561.835510 
z"/>
<path fill="#000000" opacity="1.000000" stroke="none" 
	d="
M580.176697,1493.000000 
	C580.176697,1400.530518 580.176697,1308.561035 580.176697,1216.211670 
	C865.086914,1216.211670 1149.774414,1216.211670 1434.779785,1216.211670 
	C1434.779785,1352.848633 1434.779785,1489.712769 1434.779785,1626.789551 
	C1401.967041,1626.789551 1369.219238,1626.789551 1336.064697,1626.789551 
	C1336.064697,1613.120483 1336.064697,1599.545410 1336.064697,1585.732910 
	C1116.251709,1585.732910 896.844604,1585.732910 676.989624,1585.732910 
	C676.989624,1600.250732 676.989624,1614.840088 676.989624,1629.717285 
	C644.628967,1629.717285 612.714111,1629.717285 580.176697,1629.717285 
	C580.176697,1584.340698 580.176697,1538.920410 580.176697,1493.000000 
M682.578918,1429.999390 
	C680.790833,1429.999390 679.002747,1429.999390 677.200073,1429.999390 
	C677.200073,1458.803589 677.200073,1487.165894 677.200073,1515.567383 
	C896.912720,1515.567383 1116.267212,1515.567383 1335.668945,1515.567383 
	C1335.668945,1486.916992 1335.668945,1458.539062 1335.668945,1429.999634 
	C1118.073730,1429.999634 900.817017,1429.999634 682.578918,1429.999390 
M688.521851,1284.162231 
	C684.744873,1284.162231 680.967896,1284.162231 677.023804,1284.162231 
	C677.023804,1311.673584 677.023804,1338.603394 677.023804,1365.766357 
	C896.682617,1365.766357 1116.177979,1365.766357 1335.652954,1365.766357 
	C1335.652954,1338.465576 1335.652954,1311.422241 1335.652954,1284.162231 
	C1120.033691,1284.162231 904.773987,1284.162231 688.521851,1284.162231 
z"/>
<path fill="#FEFEFE" opacity="1.000000" stroke="none" 
	d="
M1103.000000,790.840942 
	C1083.548096,790.840942 1064.596313,790.840942 1045.371948,790.840942 
	C1045.371948,764.508179 1045.371948,738.595032 1045.371948,712.336304 
	C1140.296875,712.336304 1235.310181,712.336304 1330.601318,712.336304 
	C1330.601318,738.216309 1330.601318,764.130859 1330.601318,790.840942 
	C1254.934204,790.840942 1179.217041,790.840942 1103.000000,790.840942 
z"/>
<path fill="#FEFEFE" opacity="1.000000" stroke="none" 
	d="
M1226.000000,561.835510 
	C1261.121582,561.835510 1295.743164,561.835510 1330.623413,561.835510 
	C1330.623413,586.871277 1330.623413,611.476257 1330.623413,636.462158 
	C1235.637085,636.462158 1140.617065,636.462158 1045.337646,636.462158 
	C1045.337646,611.797729 1045.337646,587.203979 1045.337646,561.835510 
	C1105.364380,561.835510 1165.432251,561.835510 1226.000000,561.835510 
z"/>
<path fill="#FEFEFE" opacity="1.000000" stroke="none" 
	d="
M683.069580,1429.999512 
	C900.817017,1429.999634 1118.073730,1429.999634 1335.668945,1429.999634 
	C1335.668945,1458.539062 1335.668945,1486.916992 1335.668945,1515.567383 
	C1116.267212,1515.567383 896.912720,1515.567383 677.200073,1515.567383 
	C677.200073,1487.165894 677.200073,1458.803589 677.200073,1429.999390 
	C679.002747,1429.999390 680.790833,1429.999390 683.069580,1429.999512 
z"/>
<path fill="#FEFEFE" opacity="1.000000" stroke="none" 
	d="
M689.018066,1284.162231 
	C904.773987,1284.162231 1120.033691,1284.162231 1335.652954,1284.162231 
	C1335.652954,1311.422241 1335.652954,1338.465576 1335.652954,1365.766357 
	C1116.177979,1365.766357 896.682617,1365.766357 677.023804,1365.766357 
	C677.023804,1338.603394 677.023804,1311.673584 677.023804,1284.162231 
	C680.967896,1284.162231 684.744873,1284.162231 689.018066,1284.162231 
z"/>
</svg>